<?xml version="1.0" encoding="utf-8"?>
<!-- Generator: Adobe Illustrator 24.1.2, SVG Export Plug-In . SVG Version: 6.00 Build 0)  -->
<svg version="1.1" id="Capa_1" xmlns="http://www.w3.org/2000/svg" xmlns:xlink="http://www.w3.org/1999/xlink" x="0px" y="0px"
	 viewBox="0 0 106 34" style="enable-background:new 0 0 106 34;" xml:space="preserve">
<style type="text/css">
	.st0{fill:#FF5179;}
</style>
<g>
	<path class="st0" d="M7.2,10.4c1.2-2,4-3.1,6.5-3.1c5.5,0,8.8,3.6,8.8,11.1c0,7.5-3.2,11.1-8.8,11.1c-2.4,0-5.2-0.9-6.3-2.9v5.8
		c0,0.8-0.4,1.1-1.1,1.1H2c-0.8,0-1.1-0.4-1.1-1.1V8.8c0-0.7,0.4-1.1,1.1-1.1h3.8c0.7,0,1,0.4,1.1,0.9L7.2,10.4z M11.8,24.4
		c2.7,0,4.2-1.6,4.2-6s-1.4-6-4.2-6s-4.3,1.8-4.3,6S8.9,24.4,11.8,24.4z"/>
	<path class="st0" d="M44.3,27.8c0,0.8-0.4,1.1-1.1,1.1h-4.3c-0.8,0-1.1-0.4-1.1-1.1V16.4c0-2.4-0.9-3.8-3.2-3.8
		c-2.7,0-3.8,1.8-3.8,4.2v11c0,0.7-0.4,1.1-1.1,1.1h-4.3c-0.7,0-1.1-0.4-1.1-1.1V1.8c0-0.7,0.4-1.1,1.1-1.1h4.3
		c0.8,0,1.1,0.4,1.1,1.1v8.4c0.9-1.5,3-3,6.4-3c5,0,7.1,2.9,7.1,8L44.3,27.8L44.3,27.8z"/>
	<path class="st0" d="M53.3,4.4c0,0.8-0.3,1.1-1.1,1.1h-4.5c-0.8,0-1.1-0.4-1.1-1.1V1.9c0-0.8,0.3-1.1,1.1-1.1h4.5
		c0.8,0,1.1,0.3,1.1,1.1V4.4z M53.2,27.8c0,0.8-0.3,1.1-1.1,1.1h-4.4c-0.7,0-1.1-0.4-1.1-1.1V8.7c0-0.7,0.4-1.1,1.1-1.1h4.4
		c0.8,0,1.1,0.4,1.1,1.1V27.8z"/>
	<path class="st0" d="M75.7,27.8c0,0.8-0.4,1.1-1.1,1.1h-4.3c-0.8,0-1.1-0.4-1.1-1.1V16.4c0-2.4-0.8-3.8-3.1-3.8
		c-2.6,0-3.8,1.6-3.8,4.2v11c0,0.8-0.4,1.1-1.1,1.1h-4.3c-0.8,0-1.1-0.4-1.1-1.1V8.7c0-0.7,0.3-1.1,1.1-1.1h3.9c0.8,0,1,0.4,1.1,0.9
		l0.3,1.8c1-1.6,3-3.1,6.5-3.1c5,0,7.1,2.9,7.1,8V27.8L75.7,27.8z"/>
	<path class="st0" d="M86.8,13.9l3.5-5.3c0.3-0.5,0.9-0.9,1.6-0.9h4.3c0.7,0,1,0.6,0.5,1.3l-6.7,9.2l6.9,9.4
		c0.5,0.7,0.2,1.3-0.5,1.3h-4.5c-0.9,0-1.3-0.4-1.6-0.9l-3.6-5.6l-3.7,5.6c-0.4,0.5-0.9,0.9-1.7,0.9h-4.3c-0.7,0-1-0.6-0.5-1.3
		l6.9-9.4l-6.7-9.2c-0.5-0.7-0.2-1.3,0.5-1.3h4.5c0.9,0,1.3,0.4,1.6,0.9L86.8,13.9z"/>
</g>
</svg>
